# xmcd CD database file
#
# Track frame offsets:
#	150
#	19327
#	39452
#	58632
#
# Disc length: 1046 seconds
#
# Revision: 1
# Processed by: cddbd v1.5.2PL0 Copyright (c) Steve Scherf et al.
# Submitted via: CDex 1.70beta2
#
DISCID=2d041404
DTITLE=伴　都美子 - 閃光
DYEAR=2006
DGENRE=Game
TTITLE0=閃光
TTITLE1=Mosaic
TTITLE2=閃光 -instrumental
TTITLE3=Mosaic -instrumental
EXTD=YEAR: 2006
EXTT0=
EXTT1=
EXTT2=
EXTT3=
PLAYORDER=
